<svg width="261" height="52" viewBox="0 0 261 52" fill="none" xmlns="http://www.w3.org/2000/svg">
<path d="M130.27 52.0039H117.289L117.289 39.0225H130.27L130.27 52.0039Z" fill="black"/>
<path d="M104.307 52.004H91.3259V39.0227H104.307V52.004Z" fill="black"/>
<path d="M78.3447 52.004H65.3633V39.0227H78.3447L78.3447 52.004Z" fill="black"/>
<path d="M51.9253 52.004L38.9439 52.004V39.0227L51.9253 39.0227V52.004Z" fill="black"/>
<path d="M25.9627 52.004H12.9813L12.9813 39.0227H25.9627V52.004Z" fill="black"/>
<path d="M117.289 39.0225L104.307 39.0227L104.307 26.0416L117.289 26.0416L117.289 39.0225Z" fill="black"/>
<path d="M91.3259 39.0227L78.3447 39.0227L78.3446 26.0416L91.326 26.0416L91.3259 39.0227Z" fill="black"/>
<path d="M65.3633 39.0227L52.382 39.0229V26.0416L65.3634 26.0416L65.3633 39.0227Z" fill="black"/>
<path d="M38.9439 39.0227H25.9627L25.9626 26.0416L38.944 26.0416L38.9439 39.0227Z" fill="black"/>
<path d="M12.9813 39.0227L3.40461e-06 39.0229L2.26975e-06 26.0416L12.9814 26.0416L12.9813 39.0227Z" fill="black"/>
<path d="M130.27 26.0412L117.289 26.0416L117.289 13.0598L130.27 13.0598V26.0412Z" fill="black"/>
<path d="M104.307 26.0416H91.326L91.3259 13.0598L104.307 13.0598L104.307 26.0416Z" fill="black"/>
<path d="M78.3446 26.0416H65.3634L65.3633 13.0598L78.3447 13.0598L78.3446 26.0416Z" fill="black"/>
<path d="M51.9253 26.0412L38.944 26.0416L38.9439 13.0598L51.9253 13.0598L51.9253 26.0412Z" fill="black"/>
<path d="M25.9626 26.0416H12.9814L12.9813 13.0598L25.9627 13.0598L25.9626 26.0416Z" fill="black"/>
<path d="M117.289 13.0598L104.307 13.0598L104.307 0.078706L117.289 0.0787048L117.289 13.0598Z" fill="black"/>
<path d="M91.3259 13.0598L78.3447 13.0598L78.3446 0.0787082L91.326 0.0787071L91.3259 13.0598Z" fill="black"/>
<path d="M65.3633 13.0598L52.382 13.0601V0.0787105L65.3634 0.0787094L65.3633 13.0598Z" fill="black"/>
<path d="M38.9439 13.0598L25.9627 13.0598L25.9626 0.0787128L38.944 0.0787117L38.9439 13.0598Z" fill="black"/>
<path d="M12.9813 13.0598L1.13487e-06 13.0601L0 0.0787151L12.9814 0.078714L12.9813 13.0598Z" fill="black"/>
<path d="M260.54 52.004H247.559V39.0227H260.54V52.004Z" fill="black"/>
<path d="M234.577 52.0042H221.596V39.0228H234.577V52.0042Z" fill="black"/>
<path d="M208.615 52.0042H195.633L195.633 39.0228H208.615V52.0042Z" fill="black"/>
<path d="M182.195 52.0042L169.214 52.0042V39.0228L182.195 39.0228V52.0042Z" fill="black"/>
<path d="M156.233 52.0042H143.251V39.0228H156.233V52.0042Z" fill="black"/>
<path d="M247.559 39.0227L234.577 39.0228L234.577 26.0417L247.559 26.0417L247.559 39.0227Z" fill="black"/>
<path d="M221.596 39.0228L208.615 39.0228L208.615 26.0417L221.596 26.0417L221.596 39.0228Z" fill="black"/>
<path d="M195.633 39.0228L182.652 39.0231V26.0418L195.633 26.0417L195.633 39.0228Z" fill="black"/>
<path d="M169.214 39.0228H156.233L156.233 26.0418L169.214 26.0418L169.214 39.0228Z" fill="black"/>
<path d="M143.251 39.0228L130.27 39.0225V26.0412L143.251 26.0418L143.251 39.0228Z" fill="black"/>
<path d="M260.54 26.0413L247.559 26.0417L247.559 13.06L260.54 13.06V26.0413Z" fill="black"/>
<path d="M234.577 26.0417H221.596L221.596 13.06L234.577 13.06L234.577 26.0417Z" fill="black"/>
<path d="M208.615 26.0417H195.633L195.633 13.06L208.615 13.06L208.615 26.0417Z" fill="black"/>
<path d="M182.195 26.0413L169.214 26.0418L169.214 13.06L182.195 13.06V26.0413Z" fill="black"/>
<path d="M156.233 26.0418H143.251L143.251 13.06L156.233 13.06L156.233 26.0418Z" fill="black"/>
<path d="M247.559 13.06L234.577 13.06L234.577 0.0788891L247.559 0.0788879L247.559 13.06Z" fill="black"/>
<path d="M221.596 13.06L208.615 13.06L208.615 0.0788913L221.596 0.0788902L221.596 13.06Z" fill="black"/>
<path d="M195.633 13.06L182.652 13.0603V0.0788936L195.633 0.0788925L195.633 13.06Z" fill="black"/>
<path d="M169.214 13.06L156.233 13.06L156.233 0.0788959L169.214 0.0788948L169.214 13.06Z" fill="black"/>
<path d="M143.251 13.06L130.27 13.0598L130.27 0.0788982L143.251 0.0788971L143.251 13.06Z" fill="black"/>
</svg>
