<svg width="131" height="52" viewBox="0 0 131 52" fill="none" xmlns="http://www.w3.org/2000/svg">
<path d="M130.27 51.9252H117.289L117.289 38.9438H130.27L130.27 51.9252Z" fill="white"/>
<path d="M104.307 51.9253H91.3259V38.9439H104.307V51.9253Z" fill="white"/>
<path d="M78.3447 51.9253H65.3633V38.944H78.3447L78.3447 51.9253Z" fill="white"/>
<path d="M51.9253 51.9253L38.9439 51.9253V38.944L51.9253 38.944V51.9253Z" fill="white"/>
<path d="M25.9627 51.9253H12.9813L12.9813 38.944H25.9627V51.9253Z" fill="white"/>
<path d="M117.289 38.9438L104.307 38.9439L104.307 25.9629L117.289 25.9629L117.289 38.9438Z" fill="white"/>
<path d="M91.3259 38.9439L78.3447 38.944L78.3446 25.9629L91.326 25.9629L91.3259 38.9439Z" fill="white"/>
<path d="M65.3633 38.944L52.382 38.9442V25.9629L65.3634 25.9629L65.3633 38.944Z" fill="white"/>
<path d="M38.9439 38.944H25.9627L25.9626 25.9629L38.944 25.9629L38.9439 38.944Z" fill="white"/>
<path d="M12.9813 38.944L3.40461e-06 38.9442L2.26975e-06 25.9629L12.9814 25.9629L12.9813 38.944Z" fill="white"/>
<path d="M130.27 25.9625L117.289 25.9629L117.289 12.9811L130.27 12.9811V25.9625Z" fill="white"/>
<path d="M104.307 25.9629H91.326L91.3259 12.9811L104.307 12.9811L104.307 25.9629Z" fill="white"/>
<path d="M78.3446 25.9629H65.3634L65.3633 12.9811L78.3447 12.9811L78.3446 25.9629Z" fill="white"/>
<path d="M51.9253 25.9625L38.944 25.9629L38.9439 12.9811L51.9253 12.9811L51.9253 25.9625Z" fill="white"/>
<path d="M25.9626 25.9629H12.9814L12.9813 12.9811L25.9627 12.9811L25.9626 25.9629Z" fill="white"/>
<path d="M117.289 12.9811L104.307 12.9811L104.307 1.13487e-06L117.289 0L117.289 12.9811Z" fill="white"/>
<path d="M91.3259 12.9811L78.3447 12.9811L78.3446 3.40459e-06L91.326 2.26972e-06L91.3259 12.9811Z" fill="white"/>
<path d="M65.3633 12.9811L52.382 12.9814V5.67431e-06L65.3634 4.53945e-06L65.3633 12.9811Z" fill="white"/>
<path d="M38.9439 12.9811L25.9627 12.9811L25.9626 7.98397e-06L38.944 6.8491e-06L38.9439 12.9811Z" fill="white"/>
<path d="M12.9813 12.9811L1.13487e-06 12.9814L0 1.02537e-05L12.9814 9.11883e-06L12.9813 12.9811Z" fill="white"/>
</svg>
