<svg width="204" height="69" viewBox="0 0 204 69" fill="none" xmlns="http://www.w3.org/2000/svg">
<path d="M158.398 46.7267V25.9535H173.028V30.3159H163.354V34.1441H172.138V38.5361H163.354V42.3643H173.028V46.7267H158.398Z" fill="black"/>
<path d="M150.517 25.9535H156.037L152.476 32.1854C151.902 33.1944 151.229 33.9462 150.458 34.4408C149.706 34.9156 148.776 35.1531 147.668 35.1531V35.7466H149.122C150.428 35.7466 151.585 36.0038 152.594 36.5182C153.603 37.0128 154.296 37.8833 154.672 39.1296L156.927 46.7267H151.289L150.22 39.4264C150.161 39.0307 150.062 38.7933 149.923 38.7142C149.805 38.6153 149.538 38.5658 149.122 38.5658H144.344V46.7267H139.299V25.9535H144.344V34.1144H144.849C145.126 34.1144 145.343 34.1045 145.502 34.0847C145.68 34.0451 145.828 33.9858 145.947 33.9067C146.066 33.8275 146.174 33.7187 146.273 33.5802C146.372 33.4417 146.481 33.2637 146.6 33.0461L150.517 25.9535Z" fill="black"/>
<path d="M117.486 46.7267L122.739 25.9535H132.591L137.814 46.7267H132.621L131.107 40.2277H124.163L122.679 46.7267H117.486ZM125.172 35.7763H130.098L127.932 26.3986H127.338L125.172 35.7763Z" fill="black"/>
<path d="M108.072 46.7267V30.4049H101.691V25.9535H119.497V30.4049H113.117V46.7267H108.072Z" fill="black"/>
<path d="M185.831 1.19698H194.882C196.307 1.19698 197.504 1.30579 198.473 1.52342C199.462 1.72126 200.254 2.0477 200.847 2.50273C201.441 2.93798 201.866 3.52161 202.123 4.25362C202.4 4.96584 202.539 5.82645 202.539 6.83543C202.539 7.72572 202.42 8.46762 202.183 9.06114C201.945 9.65466 201.559 10.1394 201.025 10.5153C200.491 10.8714 199.789 11.1286 198.918 11.2868C198.067 11.4451 197.019 11.5243 195.773 11.5243V12.1178H196.9C197.949 12.1178 198.879 12.3651 199.69 12.8597C200.501 13.3543 201.104 14.2446 201.5 15.5305L203.429 21.9702H197.79L196.782 14.9667C196.722 14.571 196.623 14.3336 196.485 14.2545C196.366 14.1555 196.099 14.1061 195.683 14.1061H190.876V21.9702H185.831V1.19698ZM190.876 9.65466H194.882C195.317 9.65466 195.693 9.63488 196.01 9.59531C196.346 9.55574 196.623 9.46671 196.841 9.32822C197.059 9.18974 197.217 8.9919 197.316 8.7347C197.434 8.45773 197.494 8.10161 197.494 7.66636C197.494 7.21133 197.434 6.85522 197.316 6.59803C197.217 6.32105 197.059 6.11332 196.841 5.97483C196.623 5.83634 196.346 5.74731 196.01 5.70774C195.693 5.66818 195.317 5.64839 194.882 5.64839H190.876V9.65466Z" fill="black"/>
<path d="M169.08 21.9702V1.19698H183.71V5.55936H174.036V9.38758H182.82V13.7796H174.036V17.6078H183.71V21.9702H169.08Z" fill="black"/>
<path d="M147.556 1.19698H152.927L157.29 21.5251H157.883L162.245 1.19698H167.587L162.928 21.9702H152.215L147.556 1.19698Z" fill="black"/>
<path d="M127.047 11.5836C127.047 7.96312 127.938 5.2527 129.718 3.45236C131.499 1.65201 134.051 0.751835 137.375 0.751835C140.698 0.751835 143.241 1.65201 145.001 3.45236C146.782 5.2527 147.672 7.96312 147.672 11.5836C147.672 15.2041 146.782 17.9145 145.001 19.7148C143.241 21.5152 140.698 22.4154 137.375 22.4154C134.051 22.4154 131.499 21.5152 129.718 19.7148C127.938 17.9145 127.047 15.2041 127.047 11.5836ZM132.092 11.5836C132.092 13.7401 132.547 15.3426 133.457 16.3911C134.367 17.4397 135.673 17.964 137.375 17.964C139.056 17.964 140.352 17.4397 141.262 16.3911C142.172 15.3426 142.627 13.7401 142.627 11.5836C142.627 9.42714 142.172 7.82463 141.262 6.77608C140.352 5.72752 139.056 5.20325 137.375 5.20325C135.673 5.20325 134.367 5.72752 133.457 6.77608C132.547 7.82463 132.092 9.42714 132.092 11.5836Z" fill="black"/>
<path d="M64.4989 3.16952C66.0323 1.62225 68.1204 0.751835 70.2988 0.751835H116.945L74.0691 44.014C72.5357 45.5613 70.4476 46.4317 68.2692 46.4317H51.3206L88.5993 17.2587L0 68.2502L35.4701 32.4602L97.1838 7.12579L46.8684 20.959L64.4989 3.16952Z" fill="black"/>
</svg>
