<svg width="205" height="68" viewBox="0 0 205 68" fill="none" xmlns="http://www.w3.org/2000/svg">
<path d="M159.097 46.3669V25.5937H173.728V29.9561H164.053V33.7843H172.837V38.1764H164.053V42.0046H173.728V46.3669H159.097Z" fill="white"/>
<path d="M151.217 25.5937H156.736L153.175 31.8257C152.602 32.8347 151.929 33.5865 151.157 34.0811C150.406 34.5559 149.476 34.7933 148.368 34.7933V35.3868H149.822C151.128 35.3868 152.285 35.644 153.294 36.1584C154.303 36.653 154.995 37.5235 155.371 38.7699L157.627 46.3669H151.988L150.92 39.0666C150.861 38.671 150.762 38.4335 150.623 38.3544C150.504 38.2555 150.237 38.206 149.822 38.206H145.044V46.3669H139.999V25.5937H145.044V33.7546H145.549C145.826 33.7546 146.043 33.7447 146.201 33.7249C146.379 33.6854 146.528 33.626 146.647 33.5469C146.765 33.4677 146.874 33.3589 146.973 33.2204C147.072 33.082 147.181 32.9039 147.299 32.6863L151.217 25.5937Z" fill="white"/>
<path d="M118.186 46.3669L123.438 25.5937H133.291L138.514 46.3669H133.32L131.807 39.8679H124.863L123.379 46.3669H118.186ZM125.872 35.4165H130.798L128.632 26.0388H128.038L125.872 35.4165Z" fill="white"/>
<path d="M108.772 46.3669V30.0451H102.391V25.5937H120.197V30.0451H113.816V46.3669H108.772Z" fill="white"/>
<path d="M186.531 0.837204H195.582C197.006 0.837204 198.203 0.946017 199.173 1.16364C200.162 1.36148 200.953 1.68792 201.547 2.14295C202.14 2.5782 202.566 3.16183 202.823 3.89384C203.1 4.60607 203.238 5.46667 203.238 6.47566C203.238 7.36594 203.12 8.10784 202.882 8.70136C202.645 9.29489 202.259 9.77959 201.725 10.1555C201.191 10.5116 200.488 10.7688 199.618 10.9271C198.767 11.0853 197.719 11.1645 196.472 11.1645V11.758H197.6C198.648 11.758 199.578 12.0053 200.389 12.4999C201.201 12.9945 201.804 13.8848 202.2 15.1707L204.129 21.6105H198.49L197.481 14.6069C197.422 14.2112 197.323 13.9738 197.184 13.8947C197.066 13.7958 196.799 13.7463 196.383 13.7463H191.576V21.6105H186.531V0.837204ZM191.576 9.29489H195.582C196.017 9.29489 196.393 9.2751 196.71 9.23553C197.046 9.19596 197.323 9.10694 197.541 8.96845C197.758 8.82996 197.916 8.63212 198.015 8.37493C198.134 8.09795 198.193 7.74184 198.193 7.30659C198.193 6.85156 198.134 6.49544 198.015 6.23825C197.916 5.96127 197.758 5.75354 197.541 5.61505C197.323 5.47656 197.046 5.38754 196.71 5.34797C196.393 5.3084 196.017 5.28862 195.582 5.28862H191.576V9.29489Z" fill="white"/>
<path d="M169.779 21.6105V0.837204H184.41V5.19959H174.735V9.0278H183.519V13.4199H174.735V17.2481H184.41V21.6105H169.779Z" fill="white"/>
<path d="M148.256 0.837204H153.627L157.989 21.1653H158.583L162.945 0.837204H168.287L163.628 21.6105H152.915L148.256 0.837204Z" fill="white"/>
<path d="M127.747 11.2238C127.747 7.60334 128.637 4.89293 130.418 3.09258C132.198 1.29223 134.751 0.392059 138.074 0.392059C141.398 0.392059 143.94 1.29223 145.701 3.09258C147.482 4.89293 148.372 7.60334 148.372 11.2238C148.372 14.8443 147.482 17.5547 145.701 19.3551C143.94 21.1554 141.398 22.0556 138.074 22.0556C134.751 22.0556 132.198 21.1554 130.418 19.3551C128.637 17.5547 127.747 14.8443 127.747 11.2238ZM132.792 11.2238C132.792 13.3803 133.247 14.9828 134.157 16.0313C135.067 17.0799 136.373 17.6042 138.074 17.6042C139.756 17.6042 141.052 17.0799 141.962 16.0313C142.872 14.9828 143.327 13.3803 143.327 11.2238C143.327 9.06736 142.872 7.46486 141.962 6.4163C141.052 5.36775 139.756 4.84347 138.074 4.84347C136.373 4.84347 135.067 5.36775 134.157 6.4163C133.247 7.46486 132.792 9.06736 132.792 11.2238Z" fill="white"/>
<path d="M65.1986 2.80974C66.732 1.26248 68.8201 0.392059 70.9985 0.392059H117.644L74.7688 43.6543C73.2354 45.2015 71.1473 46.072 68.9689 46.072H52.0203L89.299 16.8989L0.699707 67.8904L36.1698 32.1004L97.8835 6.76601L47.5681 20.5992L65.1986 2.80974Z" fill="white"/>
</svg>
